<svg width="241" height="209" viewBox="0 0 241 209" fill="none" xmlns="http://www.w3.org/2000/svg">
<rect width="241" height="209" rx="104.5" fill="#424242"/>
<mask id="mask0_1_26" style="mask-type:alpha" maskUnits="userSpaceOnUse" x="17" y="0" width="224" height="209">
<rect x="17" width="224" height="209" rx="104.5" fill="#424242"/>
</mask>
<g mask="url(#mask0_1_26)">
<rect x="126" y="43" width="153" height="123" fill="#F8F1F1"/>
<path d="M54.0455 151V57.9091H76.5455V95.2727H113.227V57.9091H135.682V151H113.227V113.591H76.5455V151H54.0455Z" fill="#FF6600"/>
<path d="M149.955 151H115.545V57.9091H149.909C159.394 57.9091 167.561 59.7727 174.409 63.5C181.288 67.197 186.591 72.5303 190.318 79.5C194.045 86.4394 195.909 94.7424 195.909 104.409C195.909 114.106 194.045 122.439 190.318 129.409C186.621 136.379 181.333 141.727 174.455 145.455C167.576 149.152 159.409 151 149.955 151ZM138.045 131.818H149.091C154.303 131.818 158.712 130.939 162.318 129.182C165.955 127.394 168.697 124.5 170.545 120.5C172.424 116.47 173.364 111.106 173.364 104.409C173.364 97.7121 172.424 92.3788 170.545 88.4091C168.667 84.4091 165.894 81.5303 162.227 79.7727C158.591 77.9848 154.106 77.0909 148.773 77.0909H138.045V131.818Z" fill="#FF6600"/>
</g>
</svg>
